HIERARCHY
ROOT Hips
{
	OFFSET -0.001795 -0.223333 0.028219
	CHANNELS 6 Xposition Yposition Zposition Zrotation Yrotation Xrotation 
	JOINT LeftUpLeg
	{
		OFFSET 0.069520 -0.091406 -0.006815
		CHANNELS 3 Zrotation Yrotation Xrotation
		JOINT LeftLeg
		{
			OFFSET 0.034277 -0.375199 -0.004496
			CHANNELS 3 Zrotation Yrotation Xrotation
			JOINT LeftFoot
			{
				OFFSET -0.013596 -0.397961 -0.043693
				CHANNELS 3 Zrotation Yrotation Xrotation
				JOINT LeftToe
				{
					OFFSET 0.026358 -0.055791 0.119288
					CHANNELS 3 Zrotation Yrotation Xrotation
					End Site
					{
						OFFSET 0.000000 0.000000 0.000000
					}
				}
			}
		}
	}
	JOINT RightUpLeg
	{
		OFFSET -0.067670 -0.090522 -0.004320
		CHANNELS 3 Zrotation Yrotation Xrotation
		JOINT RightLeg
		{
			OFFSET -0.038290 -0.382569 -0.008850
			CHANNELS 3 Zrotation Yrotation Xrotation
			JOINT RightFoot
			{
				OFFSET 0.015774 -0.398415 -0.042312
				CHANNELS 3 Zrotation Yrotation Xrotation
				JOINT RightToe
				{
					OFFSET -0.025372 -0.048144 0.123348
					CHANNELS 3 Zrotation Yrotation Xrotation
					End Site
					{
						OFFSET 0.000000 0.000000 0.000000
					}
				}
			}
		}
	}
	JOINT Spine
	{
		OFFSET -0.002533 0.108963 -0.026696
		CHANNELS 3 Zrotation Yrotation Xrotation
		JOINT Spine1
		{
			OFFSET 0.005487 0.135180 0.001092
			CHANNELS 3 Zrotation Yrotation Xrotation
			JOINT Spine2
			{
				OFFSET 0.001457 0.052922 0.025425
				CHANNELS 3 Zrotation Yrotation Xrotation
				JOINT Neck
				{
					OFFSET -0.002778 0.213870 -0.042857
					CHANNELS 3 Zrotation Yrotation Xrotation
					JOINT Head
					{
						OFFSET 0.005152 0.064970 0.051349
						CHANNELS 3 Zrotation Yrotation Xrotation
						End Site
						{
							OFFSET 0.000000 0.000000 0.000000
						}
					}
				}
				JOINT LeftShoulder
				{
					OFFSET 0.078845 0.121749 -0.034090
					CHANNELS 3 Zrotation Yrotation Xrotation
					JOINT LeftArm
					{
						OFFSET 0.090977 0.030469 -0.008868
						CHANNELS 3 Zrotation Yrotation Xrotation
						JOINT LeftForeArm
						{
							OFFSET 0.259612 -0.012772 -0.027456
							CHANNELS 3 Zrotation Yrotation Xrotation
							JOINT LeftHand
							{
								OFFSET 0.249234 0.008986 -0.001171
								CHANNELS 3 Zrotation Yrotation Xrotation
								End Site
								{
									OFFSET 0.000000 0.000000 0.000000
								}
							}
						}
					}
				}
				JOINT RightShoulder
				{
					OFFSET -0.081759 0.118833 -0.038615
					CHANNELS 3 Zrotation Yrotation Xrotation
					JOINT RightArm
					{
						OFFSET -0.096012 0.032551 -0.009143
						CHANNELS 3 Zrotation Yrotation Xrotation
						JOINT RightForeArm
						{
							OFFSET -0.253742 -0.013329 -0.021401
							CHANNELS 3 Zrotation Yrotation Xrotation
							JOINT RightHand
							{
								OFFSET -0.255298 0.007772 -0.005559
								CHANNELS 3 Zrotation Yrotation Xrotation
								End Site
								{
									OFFSET 0.000000 0.000000 0.000000
								}
							}
						}
					}
				}
			}
		}
	}
}
MOTION
Frames: 15
Frame Time: 0.050000
-0.028792 0.938346 -0.318669 -1.176370 3.001977 2.459900 4.645753 -1.505836 -24.616151 -2.996757 0.307273 -0.086170 -2.883937 6.221514 29.376030 0.000000 0.000000 0.000000 5.035123 -0.246360 0.790162 -0.215141 0.327208 7.959992 -0.506367 -1.154676 -0.335338 0.000000 0.000000 0.000000 -0.132288 -0.503337 11.715000 -2.341651 1.101574 0.461848 0.296048 3.136050 -0.007298 -1.708944 2.798141 -20.450280 0.000000 0.000000 0.000000 -27.094549 0.765275 -5.012289 -39.712006 -8.227260 -1.286424 -23.341046 -52.823447 12.929827 0.000000 0.000000 0.000000 18.886850 3.343201 1.070129 46.057543 12.542924 0.262334 28.740402 46.825757 14.727671 0.000000 0.000000 0.000000 
-0.031412 0.941984 -0.346704 -0.688370 2.807849 1.909283 4.845769 -1.424634 -24.183172 -3.143890 0.310222 1.715204 -2.240133 5.362759 23.643863 0.000000 0.000000 0.000000 4.855244 -0.217307 0.672100 -0.751354 0.345802 6.018776 -0.294487 -0.997003 0.521964 0.000000 0.000000 0.000000 0.186391 -0.539974 11.773581 -2.176274 1.042850 -0.724813 0.216287 2.328228 0.925097 -1.327780 2.524987 -20.519367 0.000000 0.000000 0.000000 -27.775178 3.641574 -6.567986 -40.448409 -7.122486 -1.832500 -22.644563 -49.448101 11.832861 0.000000 0.000000 0.000000 17.837038 2.488432 0.429140 46.162652 11.928731 0.032281 30.911923 44.612656 14.728973 0.000000 0.000000 0.000000 
-0.033354 0.945760 -0.372886 -0.111149 2.705596 1.602111 4.180225 -1.495806 -23.470902 -2.767224 0.200701 6.797330 -0.680774 5.415527 16.673264 0.000000 0.000000 0.000000 4.428708 -0.065231 -0.282780 -1.040703 0.360610 5.281078 -0.100086 -1.019699 1.656154 0.000000 0.000000 0.000000 0.185549 -0.516263 11.366291 -2.483544 1.185133 -0.412222 0.231535 1.801477 0.604768 -1.281490 2.415977 -20.123182 0.000000 0.000000 0.000000 -27.095188 3.814838 -6.326478 -40.866912 -5.428876 -2.445461 -20.384225 -45.565017 9.907934 0.000000 0.000000 0.000000 17.818661 2.039035 0.029589 45.487463 10.607129 -0.403397 30.681513 43.045024 13.895541 0.000000 0.000000 0.000000 
-0.034771 0.949338 -0.398100 0.662281 2.716391 1.910090 3.414188 -1.516052 -21.792949 -3.165836 0.196852 12.313838 1.528552 7.186174 11.070359 0.000000 0.000000 0.000000 3.580386 0.179118 -1.995969 -1.001369 0.333566 4.822866 0.072121 -1.158541 2.929363 0.000000 0.000000 0.000000 -0.245237 -0.451793 11.064687 -2.569664 1.226645 -0.689160 0.557457 0.715271 0.519617 -1.022594 2.115997 -19.418865 0.000000 0.000000 0.000000 -26.513657 4.736834 -6.373068 -40.607884 -4.056580 -2.981052 -18.486183 -42.330520 8.551848 0.000000 0.000000 0.000000 17.533265 1.731427 -0.400812 44.790102 9.997799 -0.541992 29.028206 41.976082 12.617860 0.000000 0.000000 0.000000 
-0.035691 0.951304 -0.423038 0.927941 2.510784 2.297443 3.517767 -1.372427 -20.104531 -4.095279 0.361808 18.430792 2.934927 8.070127 5.806865 0.000000 0.000000 0.000000 3.582217 0.432818 -3.958390 -1.587066 0.413545 4.635319 0.267963 -1.184253 4.042142 0.000000 0.000000 0.000000 -0.103692 -0.435598 10.417731 -2.056443 0.982316 -0.507777 0.080247 -0.274385 0.159019 -0.407638 1.689646 -19.531105 0.000000 0.000000 0.000000 -25.714284 5.135457 -6.154566 -40.122059 -2.325490 -3.541370 -17.670468 -39.914262 7.832885 0.000000 0.000000 0.000000 17.343746 1.943892 -0.517112 43.799810 9.759580 -0.526358 27.380368 41.587042 11.654376 0.000000 0.000000 0.000000 
-0.035898 0.952583 -0.448018 1.123336 2.870576 2.386474 3.055807 -1.256640 -17.437140 -4.557113 0.427490 24.496294 3.562249 8.077422 1.797045 0.000000 0.000000 0.000000 3.415856 0.682654 -5.893280 -1.750061 0.457965 5.031077 0.235484 -1.683050 5.125151 0.000000 0.000000 0.000000 0.139543 -0.466804 10.463170 -2.056043 0.985007 -0.717802 0.624545 -1.411270 -0.042099 -0.124911 1.475897 -20.363371 0.000000 0.000000 0.000000 -25.691544 5.457904 -6.002993 -39.557965 -1.517404 -3.819350 -17.556104 -37.467386 7.393965 0.000000 0.000000 0.000000 16.764806 1.719805 -0.844918 42.412241 10.303578 -0.258080 25.626859 41.227525 10.678150 0.000000 0.000000 0.000000 
-0.034943 0.952419 -0.473145 0.895703 2.841507 1.512058 3.075635 -0.909311 -12.739225 -6.283806 1.014127 28.023689 4.482000 10.891191 6.008036 0.000000 0.000000 0.000000 4.010221 0.855389 -7.005975 -2.614705 0.636689 5.778283 0.304073 -1.861170 5.953895 0.000000 0.000000 0.000000 0.246249 -0.540904 11.755009 -2.436254 1.174766 -1.443649 2.129757 -2.214573 0.533193 -1.074521 1.836898 -19.987974 0.000000 0.000000 0.000000 -25.329062 5.022261 -5.280779 -40.600729 -1.313301 -4.155384 -17.617971 -36.152842 7.270580 0.000000 0.000000 0.000000 17.625044 1.981274 -1.052511 39.809423 11.090013 -0.003537 21.933702 40.686625 8.977160 0.000000 0.000000 0.000000 
-0.032925 0.952947 -0.498356 0.421605 4.307036 2.462887 2.181416 -0.839494 -10.612801 -5.190687 0.446330 29.393299 1.715630 8.981703 16.243850 0.000000 0.000000 0.000000 3.428424 1.116053 -9.260746 -1.128361 0.357360 5.029275 -0.017356 -3.097049 7.827604 0.000000 0.000000 0.000000 0.388127 -0.549375 11.220107 0.164680 -0.042395 -0.919743 0.450194 -2.804484 -0.869721 -0.470699 1.541643 -19.311797 0.000000 0.000000 0.000000 -25.295757 6.524007 -6.406538 -40.901906 0.254572 -4.498190 -17.478960 -37.211159 7.366407 0.000000 0.000000 0.000000 19.691344 3.110293 -0.550088 37.205146 11.009998 0.025719 18.901987 39.220889 7.620229 0.000000 0.000000 0.000000 
-0.030544 0.952876 -0.523545 0.355965 4.463725 2.446936 1.083191 -0.574053 -6.709943 -5.546764 0.581176 26.971573 2.218518 10.612901 20.234318 0.000000 0.000000 0.000000 2.900307 1.298220 -11.043430 -0.647134 0.290890 5.286854 0.080662 -3.343083 9.250865 0.000000 0.000000 0.000000 -0.254311 -0.483943 11.351420 -0.173875 0.088473 -0.246198 1.976955 -2.228676 -1.158395 0.520425 1.115377 -20.585056 0.000000 0.000000 0.000000 -25.565487 4.330074 -5.209463 -41.427468 0.249696 -4.527601 -16.534443 -36.948231 6.957274 0.000000 0.000000 0.000000 20.658176 3.403425 -0.415076 36.093649 10.896776 -0.025654 15.761748 40.642238 6.832186 0.000000 0.000000 0.000000 
-0.027858 0.950660 -0.549160 -0.068983 5.229437 2.622049 0.130597 -0.260199 -2.949355 -3.981596 0.053157 23.864529 1.325700 8.113876 14.754342 0.000000 0.000000 0.000000 2.734852 1.553522 -13.406810 -0.241810 0.250981 6.159625 -0.197704 -4.155369 10.379437 0.000000 0.000000 0.000000 0.572094 -0.482230 9.468639 0.271829 -0.182876 0.963683 0.599375 -3.532218 -1.153140 1.184024 0.497578 -17.682527 0.000000 0.000000 0.000000 -23.507093 4.678830 -4.922661 -42.743609 0.711064 -4.864347 -16.012364 -36.734367 6.796659 0.000000 0.000000 0.000000 20.679404 3.709674 -0.407173 37.911659 10.553524 -0.042446 13.355738 39.462339 5.701581 0.000000 0.000000 0.000000 
-0.024850 0.949527 -0.576340 -0.685016 7.219551 2.833245 -0.453058 0.091885 0.853254 -2.104697 -0.272950 15.582168 1.760334 7.708316 10.393083 0.000000 0.000000 0.000000 2.665015 1.794809 -15.892087 0.000375 0.219279 7.052526 -0.946704 -5.837605 12.271752 0.000000 0.000000 0.000000 0.745221 -0.526061 9.635867 0.203357 -0.155875 0.891006 1.688780 -5.107280 -1.268644 1.030629 0.545809 -18.359798 0.000000 0.000000 0.000000 -23.846015 3.986613 -4.303554 -43.443777 -0.416130 -4.650578 -14.000212 -35.260625 5.944757 0.000000 0.000000 0.000000 20.505307 3.026448 -1.021662 39.247574 9.969392 -0.130253 12.195696 37.970614 4.970767 0.000000 0.000000 0.000000 
-0.022562 0.946530 -0.605950 -0.599836 9.143288 3.307509 -1.155518 0.367714 3.607640 -0.449253 -0.228310 6.773987 0.862460 4.999560 6.743805 0.000000 0.000000 0.000000 1.447113 1.821528 -18.322819 0.748146 0.064544 7.193920 -1.702478 -7.316316 14.005482 0.000000 0.000000 0.000000 0.251617 -0.499805 9.794263 1.149509 -0.626708 0.904792 1.171279 -6.152208 -1.069223 1.568684 0.330908 -19.357106 0.000000 0.000000 0.000000 -22.578910 2.629295 -3.358564 -45.058293 -1.246985 -4.537838 -11.941340 -34.465852 5.152793 0.000000 0.000000 0.000000 20.442970 2.523616 -1.264982 40.942379 9.442661 -0.315796 9.925015 38.645498 4.318763 0.000000 0.000000 0.000000 
-0.021792 0.945252 -0.637262 -0.146251 9.915173 2.988459 -1.742794 0.487477 4.564794 -0.319956 -0.053970 2.230484 0.104090 3.326755 5.897570 0.000000 0.000000 0.000000 0.310978 1.748946 -19.987507 0.907747 0.028189 7.370059 -1.812755 -7.769524 16.227100 0.000000 0.000000 0.000000 -0.710567 -0.466698 10.908512 1.723793 -0.927863 1.112296 0.832843 -5.852933 -0.944885 1.839460 0.321299 -20.166841 0.000000 0.000000 0.000000 -22.286289 2.181418 -3.267991 -44.512122 -2.710741 -3.933287 -11.521272 -33.864868 4.860239 0.000000 0.000000 0.000000 21.076952 2.565805 -1.095507 41.720432 8.978051 -0.541341 9.094535 40.060817 4.295839 0.000000 0.000000 0.000000 
-0.022813 0.945603 -0.668292 0.005383 10.689854 2.428403 -1.529498 0.391645 3.701676 -1.269720 0.072726 1.322252 -0.232552 2.544957 5.441462 0.000000 0.000000 0.000000 -0.688855 1.655271 -21.852771 1.723629 -0.136463 8.780181 -2.005682 -8.159975 17.317630 0.000000 0.000000 0.000000 -1.496511 -0.472702 12.458490 1.771974 -0.871071 0.134178 1.207885 -6.368319 0.931930 1.942814 0.362965 -22.018832 0.000000 0.000000 0.000000 -22.406186 1.050356 -2.519960 -44.437896 -4.999195 -3.317403 -8.782668 -33.675829 4.047403 0.000000 0.000000 0.000000 20.396353 3.462797 -0.511801 43.333887 9.766659 -0.448980 8.670028 40.510529 4.219441 0.000000 0.000000 0.000000 
-0.025601 0.947876 -0.695664 -0.359212 10.696320 2.029373 -0.977056 0.287268 2.896219 -1.866508 0.154719 0.233313 -0.387786 2.514223 5.935274 0.000000 0.000000 0.000000 -1.384713 1.594423 -23.385837 3.292024 -0.483745 10.123287 -2.152308 -8.456452 17.455131 0.000000 0.000000 0.000000 -2.074804 -0.477885 13.837022 2.501632 -1.113531 -1.087096 0.882295 -5.602927 2.224708 1.972877 0.492078 -22.827077 0.000000 0.000000 0.000000 -22.336520 0.466919 -2.395172 -43.737002 -6.408483 -2.818161 -8.492914 -34.026211 3.943631 0.000000 0.000000 0.000000 19.459016 3.175378 -0.297323 44.324150 9.773908 -0.641628 11.130193 42.247298 5.497413 0.000000 0.000000 0.000000 
